<svg width="246" height="214" viewBox="0 0 246 214" fill="none" xmlns="http://www.w3.org/2000/svg">
<path d="M316.073 131.279L295.72 92.8303C266.41 108.341 242.598 117.771 224.539 121.011C245.584 106.63 264.699 81.871 282.103 46.5171L243.071 27.2564C231.202 51.3232 220.097 66.7609 210.048 76.5916C215.764 50.1945 208.482 12.9838 177.243 -46L138.794 -25.6469C154.304 3.66291 163.735 27.4749 166.975 45.4977C152.593 24.4528 127.835 5.37415 92.5171 -12.0661L73.2564 26.9651C97.3232 38.8347 112.761 49.9396 122.592 59.9887C96.1945 54.2724 58.9838 61.5543 0 92.7575L20.353 131.206C49.6265 115.696 73.402 106.302 91.4612 103.025C70.38 117.589 51.3013 142.311 33.9703 177.483L73.0015 196.744C84.7983 172.786 95.9396 157.312 106.025 147.409C100.309 173.806 107.591 211.016 138.83 270L177.279 249.647C161.768 220.374 152.375 196.598 149.098 178.539C163.662 199.62 188.384 218.699 223.556 236.03L242.816 196.999C218.859 185.202 203.385 174.097 193.481 164.011C198.834 165.176 204.586 165.795 210.922 165.795C235.826 165.795 269.068 156.11 316.109 131.206L316.073 131.279Z" fill="#D2B589"/>
</svg>
