<svg width="650" height="193" viewBox="0 0 650 193" fill="none" xmlns="http://www.w3.org/2000/svg">
<path d="M518.822 192.278V169.244L519.284 172.478L500.606 146.078H515.258L529.514 166.538L521.792 166.34L534.662 146.078H548.918L531.032 173.204L532.022 168.716V192.278H518.822ZM570.235 192.938C566.671 192.938 563.393 192.344 560.401 191.156C557.409 189.968 554.813 188.296 552.613 186.14C550.413 183.984 548.697 181.454 547.465 178.55C546.277 175.602 545.683 172.39 545.683 168.914C545.683 165.394 546.277 162.182 547.465 159.278C548.697 156.374 550.413 153.844 552.613 151.688C554.813 149.532 557.409 147.86 560.401 146.672C563.393 145.484 566.671 144.89 570.235 144.89C573.799 144.89 577.055 145.484 580.003 146.672C582.995 147.86 585.591 149.532 587.791 151.688C590.035 153.844 591.751 156.374 592.939 159.278C594.127 162.182 594.721 165.372 594.721 168.848C594.721 172.368 594.127 175.602 592.939 178.55C591.751 181.454 590.035 183.984 587.791 186.14C585.591 188.296 582.995 189.968 580.003 191.156C577.055 192.344 573.799 192.938 570.235 192.938ZM570.235 180.794C571.819 180.794 573.293 180.508 574.657 179.936C576.021 179.364 577.209 178.55 578.221 177.494C579.233 176.394 580.003 175.118 580.531 173.666C581.103 172.214 581.389 170.63 581.389 168.914C581.389 167.198 581.103 165.614 580.531 164.162C580.003 162.71 579.233 161.456 578.221 160.4C577.209 159.3 576.021 158.464 574.657 157.892C573.293 157.32 571.819 157.034 570.235 157.034C568.607 157.034 567.111 157.32 565.747 157.892C564.383 158.464 563.195 159.3 562.183 160.4C561.171 161.456 560.379 162.71 559.807 164.162C559.279 165.57 559.015 167.154 559.015 168.914C559.015 170.63 559.279 172.214 559.807 173.666C560.379 175.118 561.171 176.394 562.183 177.494C563.195 178.55 564.383 179.364 565.747 179.936C567.111 180.508 568.607 180.794 570.235 180.794ZM620.408 192.674C616.492 192.674 612.994 191.904 609.914 190.364C606.878 188.78 604.48 186.624 602.72 183.896C601.004 181.168 600.146 178.044 600.146 174.524V146.078H613.346V173.93C613.346 175.382 613.654 176.68 614.27 177.824C614.886 178.924 615.722 179.804 616.778 180.464C617.878 181.08 619.088 181.388 620.408 181.388C621.86 181.388 623.136 181.08 624.236 180.464C625.336 179.804 626.216 178.924 626.876 177.824C627.536 176.68 627.866 175.382 627.866 173.93V146.078H640.67V174.524C640.67 178.044 639.79 181.168 638.03 183.896C636.314 186.624 633.938 188.78 630.902 190.364C627.866 191.904 624.368 192.674 620.408 192.674Z" fill="#8B744B"/>
<path d="M594.596 52.1622L605.288 52.1622L605.288 60.2142L630.104 60.2142L630.104 52.1622L640.796 52.1622L640.796 81.2682L630.104 81.2682L630.104 73.2822L605.288 73.2822L605.288 81.2682L594.596 81.2682L594.596 52.1622ZM594.596 89.0459L640.796 89.0459L640.796 100.728L610.04 123.168L610.7 120.462C612.328 120.242 613.802 120.044 615.122 119.868C616.442 119.736 617.696 119.604 618.884 119.472C620.072 119.384 621.26 119.296 622.448 119.208C623.636 119.164 624.934 119.142 626.342 119.142C627.75 119.142 629.334 119.142 631.094 119.142L640.796 119.142L640.796 131.748L594.596 131.748L594.596 119.934L627.596 95.7779L626.474 100.332C624.67 100.552 623.108 100.728 621.788 100.86C620.468 101.036 619.28 101.168 618.224 101.256C617.168 101.344 616.156 101.41 615.188 101.454C614.22 101.542 613.186 101.586 612.086 101.586C610.986 101.63 609.732 101.652 608.324 101.652L594.596 101.652L594.596 89.0459Z" fill="#8B744B"/>
<path d="M55 131.522L8.8 131.522L8.8 118.454L55 118.454L55 131.522ZM38.17 125.318L27.676 125.318L27.676 101.426L38.17 101.426L38.17 125.318ZM20.086 125.318L8.8 125.318L8.8 98.852L20.086 98.852L20.086 125.318ZM55.66 71.7121C55.66 75.2761 55.066 78.5541 53.878 81.5461C52.69 84.5381 51.018 87.1341 48.862 89.3341C46.706 91.5341 44.176 93.2501 41.272 94.4821C38.324 95.6701 35.112 96.2641 31.636 96.2641C28.116 96.2641 24.904 95.6701 22 94.4821C19.096 93.2501 16.566 91.5341 14.41 89.3341C12.254 87.1341 10.582 84.5381 9.394 81.5461C8.206 78.5541 7.612 75.2761 7.612 71.7121C7.612 68.1481 8.206 64.8921 9.394 61.9441C10.582 58.9521 12.254 56.3561 14.41 54.1561C16.566 51.9121 19.096 50.1961 22 49.0081C24.904 47.8201 28.094 47.2261 31.57 47.2261C35.09 47.2261 38.324 47.8201 41.272 49.0081C44.176 50.1961 46.706 51.9121 48.862 54.1561C51.018 56.3561 52.69 58.9521 53.878 61.9441C55.066 64.8921 55.66 68.1481 55.66 71.7121ZM43.516 71.7121C43.516 70.1281 43.23 68.6541 42.658 67.2901C42.086 65.9261 41.272 64.7381 40.216 63.7261C39.116 62.7141 37.84 61.9441 36.388 61.4161C34.936 60.8441 33.352 60.5581 31.636 60.5581C29.92 60.5581 28.336 60.8441 26.884 61.4161C25.432 61.9441 24.178 62.7141 23.122 63.7261C22.022 64.7381 21.186 65.9261 20.614 67.2901C20.042 68.6541 19.756 70.1281 19.756 71.7121C19.756 73.3401 20.042 74.8361 20.614 76.2001C21.186 77.5641 22.022 78.7521 23.122 79.7641C24.178 80.7761 25.432 81.5681 26.884 82.1401C28.292 82.6681 29.876 82.9321 31.636 82.9321C33.352 82.9321 34.936 82.6681 36.388 82.1401C37.84 81.5681 39.116 80.7761 40.216 79.7641C41.272 78.7521 42.086 77.5641 42.658 76.2001C43.23 74.8361 43.516 73.3401 43.516 71.7121ZM55 41.6692L8.8 41.6692L8.8 20.3512C8.8 17.2272 9.438 14.4332 10.714 11.9692C11.99 9.50518 13.728 7.59118 15.928 6.22719C18.128 4.81919 20.658 4.11519 23.518 4.11519C26.598 4.11519 29.326 4.81919 31.702 6.22719C34.078 7.59118 35.948 9.50518 37.312 11.9692C38.632 14.4332 39.292 17.2272 39.292 20.3512L39.292 29.3932L55 29.3932L55 41.6692ZM55 16.9192L34.144 28.6672L32.494 15.2692L55 2.20118L55 16.9192ZM29.92 29.3932L29.92 22.1332C29.92 20.9892 29.7 20.0432 29.26 19.2952C28.776 18.5032 28.138 17.9092 27.346 17.5132C26.51 17.0732 25.542 16.8532 24.442 16.8532C23.386 16.8532 22.484 17.0732 21.736 17.5132C20.944 17.9532 20.35 18.6132 19.954 19.4932C19.514 20.3292 19.294 21.3852 19.294 22.6612L19.294 29.3932L29.92 29.3932Z" fill="#8B744B"/>
<path d="M83.6493 70.8229L83.6493 35.9089H69.6573V24.6229L111.171 24.6229V35.9089L96.7173 35.9089L96.7173 70.8229H83.6493ZM146.046 70.8229V24.6229H159.114V70.8229H146.046ZM118.062 70.8229V24.6229L131.13 24.6229V70.8229H118.062ZM123.012 53.5309L123.078 42.0469L153.24 42.0469V53.5309L123.012 53.5309ZM169.416 70.8229V24.6229L203.01 24.6229V35.3809L181.956 35.3809V60.0649H204V70.8229L169.416 70.8229ZM175.62 52.4749V42.3109L200.37 42.3109V52.4749L175.62 52.4749ZM266.555 73.2026C265.498 73.2026 264.44 72.9571 263.382 72.466C262.362 71.975 261.399 71.2573 260.493 70.3129C259.171 68.9531 258.018 67.3288 257.036 65.4401C256.092 63.5136 255.28 61.5494 254.6 59.5473C253.92 57.5075 253.391 55.6566 253.013 53.9945C252.636 52.2947 252.371 50.9915 252.22 50.0849C250.822 52.7669 249.368 55.43 247.857 58.0741C246.384 60.6805 244.495 63.2492 242.191 65.78C240 68.1598 237.602 69.9541 234.995 71.1628C232.389 72.4094 229.688 73.0327 226.893 73.0327C226.024 73.0327 225.136 72.976 224.23 72.8627C221.736 72.5605 219.904 71.8428 218.733 70.7096C217.562 69.5763 216.977 68.3676 216.977 67.0832C216.977 65.6856 217.6 64.4202 218.847 63.287C220.093 62.1537 221.869 61.5871 224.173 61.5871C224.928 61.5871 225.74 61.6627 226.609 61.8138C227.478 61.9649 228.385 62.2104 229.329 62.5504C229.745 62.7015 229.952 62.8714 229.952 63.0603C229.952 63.2114 229.801 63.287 229.499 63.287C229.31 63.287 229.159 63.2681 229.046 63.2303C227.799 62.777 226.685 62.5504 225.703 62.5504C224.116 62.5504 222.907 63.0225 222.076 63.9669C221.245 64.8735 220.83 65.8745 220.83 66.9699C220.83 68.0276 221.283 69.0097 222.19 69.9163C223.096 70.8229 224.494 71.2762 226.383 71.2762C228.762 71.2762 230.953 70.7284 232.955 69.633C234.957 68.4998 236.827 66.9699 238.565 65.0434C240.302 63.0792 241.964 60.8694 243.551 58.4141C245.137 55.921 246.686 53.3335 248.197 50.6515C250.728 46.1564 253.013 42.0768 255.053 38.4128C257.131 34.7109 259.322 31.5757 261.626 29.007C260.606 28.8937 259.567 28.8181 258.509 28.7804C257.452 28.7426 256.375 28.7237 255.28 28.7237C252.9 28.7237 250.426 28.8559 247.857 29.1203C245.326 29.347 242.871 29.7247 240.491 30.2536C237.28 30.9335 234.523 31.9534 232.219 33.3133C229.915 34.6354 228.082 36.1274 226.723 37.7895C225.401 39.4138 224.569 41.0569 224.23 42.719C224.116 43.3234 224.06 43.9089 224.06 44.4755C224.06 46.402 224.702 47.894 225.986 48.9517C227.27 50.0094 228.744 50.5382 230.406 50.5382C231.463 50.5382 232.521 50.3305 233.579 49.9149C234.674 49.4617 235.656 48.7628 236.525 47.8185C237.243 47.063 237.772 46.3642 238.111 45.722C238.451 45.0421 238.64 44.5321 238.678 44.1922C238.716 43.6633 238.829 43.3989 239.018 43.3989C239.131 43.3989 239.226 43.4934 239.301 43.6822C239.415 43.8711 239.452 44.06 239.415 44.2488C239.264 45.1176 238.999 45.9676 238.621 46.7986C238.244 47.6296 237.79 48.3284 237.262 48.895C236.204 49.9905 234.995 50.8026 233.635 51.3315C232.275 51.8603 230.972 52.1247 229.726 52.1247C228.252 52.1247 226.855 51.8037 225.533 51.1615C224.248 50.5193 223.21 49.5939 222.416 48.3851C221.623 47.1386 221.226 45.6087 221.226 43.7956C221.226 41.6802 221.963 39.5271 223.436 37.3362C224.909 35.1075 227.119 33.1433 230.066 31.4434C233.05 29.7436 236.752 28.5726 241.171 27.9305C243.4 27.6283 245.553 27.4016 247.631 27.2505C249.746 27.0617 251.786 26.9672 253.75 26.9672C255.336 26.9672 256.885 27.0239 258.396 27.1372C259.907 27.2505 261.399 27.4016 262.872 27.5905C263.854 26.5706 264.516 26.0606 264.855 26.0606C265.12 26.0606 265.252 26.2684 265.252 26.6839C265.252 26.835 265.233 27.0239 265.195 27.2505C265.158 27.4772 265.101 27.7038 265.025 27.9305C266.045 28.0816 267.028 28.2515 267.972 28.4404C268.954 28.5915 269.823 28.7804 270.578 29.007C273.562 29.838 275.734 30.9335 277.094 32.2934C278.492 33.6155 279.191 35.0509 279.191 36.5996C279.191 38.2617 278.435 39.9237 276.924 41.5858C275.451 43.2478 273.355 44.721 270.635 46.0053C267.953 47.2897 264.799 48.234 261.173 48.8384C260.002 49.0273 258.963 49.1595 258.056 49.235C257.187 49.3106 256.432 49.3672 255.79 49.405C255.865 49.7827 256.035 50.576 256.3 51.7848C256.564 52.9935 256.942 54.4289 257.433 56.091C257.924 57.7153 258.547 59.434 259.303 61.2472C260.096 63.0603 261.04 64.779 262.136 66.4033C263.005 67.6876 263.892 68.7453 264.799 69.5763C265.705 70.4074 266.669 70.8229 267.689 70.8229C268.331 70.8229 268.992 70.6529 269.672 70.3129C270.389 69.973 271.126 69.4252 271.881 68.6698C272.788 67.7632 273.619 66.7433 274.375 65.6101C275.13 64.4768 275.772 63.4003 276.301 62.3804C276.83 61.3227 277.226 60.4917 277.491 59.8873C277.718 59.8873 277.888 59.9062 278.001 59.944C278.114 59.9817 278.171 60.1328 278.171 60.3972C278.02 60.775 277.755 61.3794 277.378 62.2104C277 63.0037 276.547 63.9102 276.018 64.9301C275.527 65.9123 274.979 66.8944 274.375 67.8765C273.77 68.8586 273.166 69.6897 272.561 70.3696C271.693 71.3139 270.71 72.0128 269.615 72.466C268.557 72.9571 267.537 73.2026 266.555 73.2026ZM253.41 47.8751C254.505 47.6863 255.676 47.5541 256.923 47.4785C258.169 47.403 259.397 47.2897 260.606 47.1386C262.57 46.8741 264.421 46.3642 266.159 45.6087C267.896 44.8155 269.426 43.8711 270.748 42.7757C272.108 41.6802 273.166 40.5281 273.921 39.3193C274.677 38.0728 275.054 36.8829 275.054 35.7497C275.054 33.1811 273.336 31.4057 269.898 30.4235C269.218 30.2347 268.331 30.0458 267.235 29.8569C266.178 29.6681 265.214 29.4981 264.346 29.347C262.532 32.4445 260.663 35.4853 258.736 38.4694C256.847 41.4536 255.072 44.5888 253.41 47.8751ZM281.022 71.0495C279.624 71.0495 278.359 70.5962 277.226 69.6897C276.13 68.7831 275.583 67.4043 275.583 65.5534C275.583 64.0047 275.923 62.3615 276.602 60.6239C277.32 58.8863 278.246 57.262 279.379 55.751C280.55 54.2023 281.834 52.9558 283.232 52.0114C284.667 51.0293 286.103 50.5382 287.538 50.5382C288.256 50.5382 288.955 50.746 289.635 51.1615C290.314 51.577 290.654 52.2947 290.654 53.3146C290.654 54.259 290.296 55.2977 289.578 56.431C288.86 57.5642 287.84 58.6219 286.518 59.604C285.952 60.0195 285.234 60.4161 284.365 60.7939C283.496 61.1716 282.627 61.4927 281.759 61.7571C280.89 61.9838 280.172 62.0971 279.606 62.0971C279.417 62.5504 279.228 63.1547 279.039 63.9102C278.888 64.6657 278.812 65.4401 278.812 66.2333C278.812 67.1777 279.001 68.0276 279.379 68.7831C279.757 69.5386 280.455 69.9163 281.475 69.9163C282.722 69.9163 283.874 69.5574 284.932 68.8397C286.027 68.122 286.99 67.2155 287.821 66.12C288.69 65.0246 289.427 63.9102 290.031 62.777C290.636 61.6438 291.108 60.6805 291.448 59.8873C291.901 59.8873 292.128 60.0573 292.128 60.3972C291.637 61.4549 291.07 62.607 290.428 63.8536C289.823 65.1001 289.087 66.2711 288.218 67.3666C287.387 68.4242 286.367 69.3119 285.158 70.0296C283.987 70.7096 282.609 71.0495 281.022 71.0495ZM280.002 61.0772C280.531 61.0772 281.419 60.8883 282.665 60.5106C283.912 60.0951 285.045 59.4529 286.065 58.5841C287.047 57.7153 287.802 56.7709 288.331 55.751C288.86 54.6934 289.125 53.8057 289.125 53.088C289.125 52.2569 288.822 51.8414 288.218 51.8414C287.765 51.8414 287.141 52.1436 286.348 52.748C285.555 53.3524 284.573 54.3723 283.402 55.8077C282.684 56.7143 282.004 57.6964 281.362 58.7541C280.72 59.8117 280.267 60.5861 280.002 61.0772ZM303.169 70.9929C302.3 70.9929 301.525 70.7473 300.845 70.2563C300.203 69.7652 299.882 68.7642 299.882 67.2532C299.882 66.6111 299.92 66.0067 299.996 65.4401C300.109 64.8735 300.241 64.2691 300.392 63.6269C300.052 64.1935 299.58 64.8924 298.976 65.7234C298.371 66.5544 297.691 67.3666 296.936 68.1598C296.218 68.9531 295.463 69.6141 294.669 70.1429C293.914 70.6718 293.196 70.9362 292.516 70.9362C291.534 70.9362 290.741 70.5018 290.136 69.633C289.532 68.7264 289.23 67.5554 289.23 66.12C289.23 64.5713 289.589 62.9092 290.306 61.1338C291.024 59.3585 292.006 57.6586 293.253 56.0343C294.499 54.4101 295.935 53.088 297.559 52.0681C299.183 51.0482 300.883 50.5382 302.659 50.5382C303.527 50.5382 304.358 50.6893 305.152 50.9915C305.945 51.2559 306.644 51.7092 307.248 52.3514C307.513 52.6158 307.645 52.918 307.645 53.258C307.645 53.4846 307.55 53.6735 307.361 53.8246C307.173 53.9757 306.927 54.0134 306.625 53.9379C306.209 52.6158 305.322 51.9547 303.962 51.9547C303.32 51.9547 302.583 52.1625 301.752 52.578C300.732 53.1069 299.637 53.9568 298.466 55.1278C297.332 56.261 296.256 57.5642 295.236 59.0374C294.254 60.4728 293.442 61.9271 292.8 63.4003C292.157 64.8735 291.836 66.2144 291.836 67.4232C291.836 68.6698 292.309 69.293 293.253 69.293C294.084 69.293 294.934 68.8964 295.803 68.1031C296.709 67.3099 297.559 66.3278 298.352 65.1568C299.183 63.948 299.939 62.7581 300.619 61.5871C301.299 60.4161 301.828 59.4718 302.205 58.7541C302.772 57.7342 303.301 56.8843 303.792 56.2043C304.283 55.5244 304.982 55.1844 305.888 55.1844C306.304 55.1844 306.719 55.2411 307.135 55.3544C307.55 55.4677 307.985 55.4866 308.438 55.4111C307.305 56.5443 306.304 57.8853 305.435 59.434C304.604 60.9827 303.962 62.5126 303.509 64.0235C303.055 65.4967 302.829 66.7433 302.829 67.7632C302.829 68.8964 303.206 69.463 303.962 69.463C304.566 69.463 305.208 69.123 305.888 68.4431C306.606 67.7632 307.286 66.9133 307.928 65.8934C308.608 64.8357 309.231 63.778 309.798 62.7203C310.364 61.6249 310.818 60.6805 311.158 59.8873C311.347 59.8873 311.498 59.9062 311.611 59.944C311.762 59.9817 311.838 60.1328 311.838 60.3972C311.8 60.5483 311.724 60.7183 311.611 60.9072C311.535 61.0583 311.403 61.3416 311.214 61.7571C310.912 62.3615 310.497 63.1736 309.968 64.1935C309.439 65.2134 308.816 66.2522 308.098 67.3099C307.38 68.3298 306.606 69.1986 305.775 69.9163C304.944 70.634 304.075 70.9929 303.169 70.9929ZM313.277 70.9929C311.879 70.9929 310.84 70.5773 310.16 69.7463C309.518 68.8775 309.197 67.8576 309.197 66.6866C309.197 65.4779 309.367 64.2313 309.707 62.947C310.047 61.6627 310.349 60.5861 310.614 59.7173C311.218 57.602 311.974 55.3544 312.88 52.9746C313.825 50.5571 314.844 48.1962 315.94 45.892C317.073 43.55 318.187 41.4536 319.283 39.6026C320.152 38.1294 321.077 37.034 322.059 36.3163C323.079 35.5608 323.967 35.1831 324.722 35.1831C325.327 35.1831 325.799 35.4097 326.139 35.863C326.517 36.2785 326.705 36.9207 326.705 37.7895C326.705 38.3939 326.592 39.1116 326.365 39.9426C326.177 40.7736 325.837 41.718 325.346 42.7757C324.024 45.722 322.437 48.6684 320.586 51.6148C318.773 54.5612 316.469 57.3187 313.673 59.8873C313.22 60.945 312.842 62.0782 312.54 63.287C312.238 64.4957 312.087 65.4779 312.087 66.2333C312.087 68.5753 312.88 69.7463 314.467 69.7463C315.675 69.7463 317.016 68.8775 318.49 67.1399C319.963 65.3645 321.36 62.947 322.683 59.8873C322.834 59.8873 322.985 59.9251 323.136 60.0006C323.287 60.0384 323.362 60.1706 323.362 60.3972C322.947 61.4171 322.418 62.5504 321.776 63.7969C321.172 65.0057 320.454 66.1578 319.623 67.2532C318.83 68.3487 317.904 69.2553 316.846 69.973C315.789 70.6529 314.599 70.9929 313.277 70.9929ZM314.127 58.0741C315.487 56.6765 316.809 55.0711 318.093 53.258C319.377 51.407 320.567 49.4994 321.663 47.5352C322.796 45.5332 323.74 43.6445 324.496 41.8691C324.76 41.3025 324.968 40.6792 325.119 39.9993C325.308 39.3193 325.402 38.7527 325.402 38.2994C325.402 37.7706 325.27 37.5062 325.006 37.5062C324.855 37.5062 324.628 37.6573 324.326 37.9595C324.024 38.2239 323.627 38.6961 323.136 39.376C322.418 40.3203 321.625 41.6047 320.756 43.2289C319.925 44.8532 319.075 46.5908 318.206 48.4418C317.338 50.2927 316.544 52.087 315.827 53.8246C315.109 55.5244 314.542 56.9409 314.127 58.0741Z" fill="#D2B589"/>
<path d="M70.0737 131.278V85.0782H90.5337C93.5697 85.0782 96.2757 85.7602 98.6517 87.1242C101.072 88.4442 102.964 90.2702 104.328 92.6022C105.736 94.9342 106.44 97.6182 106.44 100.654C106.44 103.778 105.736 106.572 104.328 109.036C102.964 111.456 101.072 113.37 98.6517 114.778C96.2757 116.186 93.5697 116.89 90.5337 116.89H83.1417V131.278H70.0737ZM82.9437 105.604H88.2897C89.2137 105.604 90.0277 105.428 90.7317 105.076C91.4357 104.68 91.9857 104.13 92.3817 103.426C92.8217 102.722 93.0417 101.864 93.0417 100.852C93.0417 99.8402 92.8217 99.0042 92.3817 98.3442C91.9857 97.6842 91.4357 97.2002 90.7317 96.8922C90.0277 96.5402 89.2137 96.3642 88.2897 96.3642H82.9437V105.604ZM111.971 131.278V85.0782H133.289C136.413 85.0782 139.207 85.7162 141.671 86.9922C144.135 88.2682 146.049 90.0062 147.413 92.2062C148.821 94.4062 149.525 96.9362 149.525 99.7962C149.525 102.876 148.821 105.604 147.413 107.98C146.049 110.356 144.135 112.226 141.671 113.59C139.207 114.91 136.413 115.57 133.289 115.57H124.247V131.278H111.971ZM136.721 131.278L124.973 110.422L138.371 108.772L151.439 131.278H136.721ZM124.247 106.198H131.507C132.651 106.198 133.597 105.978 134.345 105.538C135.137 105.054 135.731 104.416 136.127 103.624C136.567 102.788 136.787 101.82 136.787 100.72C136.787 99.6642 136.567 98.7622 136.127 98.0142C135.687 97.2222 135.027 96.6282 134.147 96.2322C133.311 95.7922 132.255 95.5722 130.979 95.5722H124.247V106.198ZM177.001 131.938C173.437 131.938 170.159 131.344 167.167 130.156C164.175 128.968 161.579 127.296 159.379 125.14C157.179 122.984 155.463 120.454 154.231 117.55C153.043 114.602 152.449 111.39 152.449 107.914C152.449 104.394 153.043 101.182 154.231 98.2782C155.463 95.3742 157.179 92.8442 159.379 90.6882C161.579 88.5322 164.175 86.8602 167.167 85.6722C170.159 84.4842 173.437 83.8902 177.001 83.8902C180.565 83.8902 183.821 84.4842 186.769 85.6722C189.761 86.8602 192.357 88.5322 194.557 90.6882C196.801 92.8442 198.517 95.3742 199.705 98.2782C200.893 101.182 201.487 104.372 201.487 107.848C201.487 111.368 200.893 114.602 199.705 117.55C198.517 120.454 196.801 122.984 194.557 125.14C192.357 127.296 189.761 128.968 186.769 130.156C183.821 131.344 180.565 131.938 177.001 131.938ZM177.001 119.794C178.585 119.794 180.059 119.508 181.423 118.936C182.787 118.364 183.975 117.55 184.987 116.494C185.999 115.394 186.769 114.118 187.297 112.666C187.869 111.214 188.155 109.63 188.155 107.914C188.155 106.198 187.869 104.614 187.297 103.162C186.769 101.71 185.999 100.456 184.987 99.4002C183.975 98.3002 182.787 97.4642 181.423 96.8922C180.059 96.3202 178.585 96.0342 177.001 96.0342C175.373 96.0342 173.877 96.3202 172.513 96.8922C171.149 97.4642 169.961 98.3002 168.949 99.4002C167.937 100.456 167.145 101.71 166.573 103.162C166.045 104.57 165.781 106.154 165.781 107.914C165.781 109.63 166.045 111.214 166.573 112.666C167.145 114.118 167.937 115.394 168.949 116.494C169.961 117.55 171.149 118.364 172.513 118.936C173.877 119.508 175.373 119.794 177.001 119.794ZM207.044 131.278V85.0782H220.112V131.278H207.044ZM213.248 114.448V103.954H237.14V114.448H213.248ZM213.248 96.3642V85.0782H239.714V96.3642H213.248ZM245.654 131.278V85.0782H279.248V95.8362H258.194V120.52H280.238V131.278H245.654ZM251.858 112.93V102.766H276.608V112.93H251.858ZM302.36 131.938C299.06 131.938 296.112 131.564 293.516 130.816C290.964 130.068 288.698 128.99 286.718 127.582C284.782 126.174 283.044 124.524 281.504 122.632L289.16 113.986C291.36 116.846 293.626 118.76 295.958 119.728C298.29 120.652 300.556 121.114 302.756 121.114C303.724 121.114 304.604 121.026 305.396 120.85C306.188 120.63 306.782 120.3 307.178 119.86C307.618 119.376 307.838 118.782 307.838 118.078C307.838 117.462 307.662 116.934 307.31 116.494C306.958 116.054 306.474 115.68 305.858 115.372C305.242 115.02 304.56 114.712 303.812 114.448C303.064 114.184 302.316 113.986 301.568 113.854C300.82 113.678 300.094 113.502 299.39 113.326C296.794 112.754 294.528 112.028 292.592 111.148C290.656 110.268 289.028 109.234 287.708 108.046C286.432 106.814 285.464 105.406 284.804 103.822C284.188 102.238 283.88 100.456 283.88 98.4762C283.88 96.3202 284.386 94.3402 285.398 92.5362C286.41 90.7322 287.752 89.1922 289.424 87.9162C291.096 86.5962 293.01 85.6062 295.166 84.9462C297.366 84.2422 299.654 83.8902 302.03 83.8902C305.286 83.8902 308.058 84.2202 310.346 84.8802C312.634 85.4962 314.548 86.3982 316.088 87.5862C317.672 88.7742 319.036 90.1602 320.18 91.7442L312.392 99.2682C311.468 98.2562 310.456 97.4202 309.356 96.7602C308.3 96.1002 307.2 95.6162 306.056 95.3082C304.912 94.9562 303.746 94.7802 302.558 94.7802C301.458 94.7802 300.49 94.8902 299.654 95.1102C298.862 95.3302 298.246 95.6602 297.806 96.1002C297.366 96.4962 297.146 97.0462 297.146 97.7502C297.146 98.3662 297.388 98.9162 297.872 99.4002C298.356 99.8402 298.972 100.214 299.72 100.522C300.468 100.83 301.26 101.094 302.096 101.314C302.976 101.49 303.768 101.644 304.472 101.776C306.892 102.26 309.092 102.898 311.072 103.69C313.096 104.438 314.856 105.406 316.352 106.594C317.848 107.738 318.992 109.146 319.784 110.818C320.576 112.49 320.972 114.448 320.972 116.692C320.972 119.992 320.136 122.786 318.464 125.074C316.836 127.318 314.614 129.034 311.798 130.222C309.026 131.366 305.88 131.938 302.36 131.938ZM341.808 131.938C338.508 131.938 335.56 131.564 332.964 130.816C330.412 130.068 328.146 128.99 326.166 127.582C324.23 126.174 322.492 124.524 320.952 122.632L328.608 113.986C330.808 116.846 333.074 118.76 335.406 119.728C337.738 120.652 340.004 121.114 342.204 121.114C343.172 121.114 344.052 121.026 344.844 120.85C345.636 120.63 346.23 120.3 346.626 119.86C347.066 119.376 347.286 118.782 347.286 118.078C347.286 117.462 347.11 116.934 346.758 116.494C346.406 116.054 345.922 115.68 345.306 115.372C344.69 115.02 344.008 114.712 343.26 114.448C342.512 114.184 341.764 113.986 341.016 113.854C340.268 113.678 339.542 113.502 338.838 113.326C336.242 112.754 333.976 112.028 332.04 111.148C330.104 110.268 328.476 109.234 327.156 108.046C325.88 106.814 324.912 105.406 324.252 103.822C323.636 102.238 323.328 100.456 323.328 98.4762C323.328 96.3202 323.834 94.3402 324.846 92.5362C325.858 90.7322 327.2 89.1922 328.872 87.9162C330.544 86.5962 332.458 85.6062 334.614 84.9462C336.814 84.2422 339.102 83.8902 341.478 83.8902C344.734 83.8902 347.506 84.2202 349.794 84.8802C352.082 85.4962 353.996 86.3982 355.536 87.5862C357.12 88.7742 358.484 90.1602 359.628 91.7442L351.84 99.2682C350.916 98.2562 349.904 97.4202 348.804 96.7602C347.748 96.1002 346.648 95.6162 345.504 95.3082C344.36 94.9562 343.194 94.7802 342.006 94.7802C340.906 94.7802 339.938 94.8902 339.102 95.1102C338.31 95.3302 337.694 95.6602 337.254 96.1002C336.814 96.4962 336.594 97.0462 336.594 97.7502C336.594 98.3662 336.836 98.9162 337.32 99.4002C337.804 99.8402 338.42 100.214 339.168 100.522C339.916 100.83 340.708 101.094 341.544 101.314C342.424 101.49 343.216 101.644 343.92 101.776C346.34 102.26 348.54 102.898 350.52 103.69C352.544 104.438 354.304 105.406 355.8 106.594C357.296 107.738 358.44 109.146 359.232 110.818C360.024 112.49 360.42 114.448 360.42 116.692C360.42 119.992 359.584 122.786 357.912 125.074C356.284 127.318 354.062 129.034 351.246 130.222C348.474 131.366 345.328 131.938 341.808 131.938ZM364.822 131.278V120.586H372.874V95.7702H364.822V85.0782H393.928V95.7702H385.942V120.586H393.928V131.278H364.822ZM422.519 131.938C418.955 131.938 415.677 131.344 412.685 130.156C409.693 128.968 407.097 127.296 404.897 125.14C402.697 122.984 400.981 120.454 399.749 117.55C398.561 114.602 397.967 111.39 397.967 107.914C397.967 104.394 398.561 101.182 399.749 98.2782C400.981 95.3742 402.697 92.8442 404.897 90.6882C407.097 88.5322 409.693 86.8602 412.685 85.6722C415.677 84.4842 418.955 83.8902 422.519 83.8902C426.083 83.8902 429.339 84.4842 432.287 85.6722C435.279 86.8602 437.875 88.5322 440.075 90.6882C442.319 92.8442 444.035 95.3742 445.223 98.2782C446.411 101.182 447.005 104.372 447.005 107.848C447.005 111.368 446.411 114.602 445.223 117.55C444.035 120.454 442.319 122.984 440.075 125.14C437.875 127.296 435.279 128.968 432.287 130.156C429.339 131.344 426.083 131.938 422.519 131.938ZM422.519 119.794C424.103 119.794 425.577 119.508 426.941 118.936C428.305 118.364 429.493 117.55 430.505 116.494C431.517 115.394 432.287 114.118 432.815 112.666C433.387 111.214 433.673 109.63 433.673 107.914C433.673 106.198 433.387 104.614 432.815 103.162C432.287 101.71 431.517 100.456 430.505 99.4002C429.493 98.3002 428.305 97.4642 426.941 96.8922C425.577 96.3202 424.103 96.0342 422.519 96.0342C420.891 96.0342 419.395 96.3202 418.031 96.8922C416.667 97.4642 415.479 98.3002 414.467 99.4002C413.455 100.456 412.663 101.71 412.091 103.162C411.563 104.57 411.299 106.154 411.299 107.914C411.299 109.63 411.563 111.214 412.091 112.666C412.663 114.118 413.455 115.394 414.467 116.494C415.479 117.55 416.667 118.364 418.031 118.936C419.395 119.508 420.891 119.794 422.519 119.794ZM452.562 131.278V85.0782H464.244L486.684 115.834L483.978 115.174C483.758 113.546 483.56 112.072 483.384 110.752C483.252 109.432 483.12 108.178 482.988 106.99C482.9 105.802 482.812 104.614 482.724 103.426C482.68 102.238 482.658 100.94 482.658 99.5322C482.658 98.1242 482.658 96.5402 482.658 94.7802V85.0782H495.264V131.278H483.45L459.294 98.2782L463.848 99.4002C464.068 101.204 464.244 102.766 464.376 104.086C464.552 105.406 464.684 106.594 464.772 107.65C464.86 108.706 464.926 109.718 464.97 110.686C465.058 111.654 465.102 112.688 465.102 113.788C465.146 114.888 465.168 116.142 465.168 117.55V131.278H452.562ZM497.341 131.278L515.755 85.0782H526.315L544.597 131.278H531.595L523.675 109.828C523.235 108.64 522.839 107.54 522.487 106.528C522.135 105.516 521.805 104.526 521.497 103.558C521.189 102.59 520.881 101.6 520.573 100.588C520.309 99.5762 520.067 98.4762 519.847 97.2882L521.959 97.2222C521.695 98.4982 521.409 99.6422 521.101 100.654C520.837 101.666 520.551 102.634 520.243 103.558C519.935 104.482 519.583 105.45 519.187 106.462C518.835 107.474 518.439 108.596 517.999 109.828L510.079 131.278H497.341ZM506.317 123.622L510.211 114.382H531.595L535.225 123.622H506.317ZM546.668 131.278V85.0782H559.736V119.992H579.866V131.278H546.668Z" fill="white"/>
</svg>
