<svg width="16" height="15" viewBox="0 0 16 15" fill="none" xmlns="http://www.w3.org/2000/svg">
<path d="M0.5625 0C0.25184 0 0 0.25184 0 0.5625C0 0.87316 0.25184 1.125 0.5625 1.125H1.60176C1.72919 1.125 1.84069 1.21067 1.87352 1.33378L3.79182 8.52741C2.58134 8.84138 1.6875 9.94131 1.6875 11.25C1.6875 11.5607 1.93934 11.8125 2.25 11.8125H14.0625C14.3732 11.8125 14.625 11.5607 14.625 11.25C14.625 10.9393 14.3732 10.6875 14.0625 10.6875H2.90852C3.14018 10.0321 3.76525 9.5625 4.5 9.5625H12.9137C13.1288 9.5625 13.3251 9.4398 13.4193 9.24641C14.2707 7.49927 15.0137 5.68952 15.6395 3.82594C15.6893 3.67768 15.6751 3.51537 15.6004 3.378C15.5256 3.24062 15.397 3.14057 15.2455 3.10187C11.6291 2.17831 7.84022 1.6875 3.9375 1.6875C3.66913 1.6875 3.40129 1.68982 3.13401 1.69445L2.96053 1.04391C2.79638 0.428316 2.23886 0 1.60176 0H0.5625Z" fill="#D7B58A" fill-opacity="0.5"/>
<path d="M1.6875 13.5C1.6875 12.8787 2.19118 12.375 2.8125 12.375C3.43382 12.375 3.9375 12.8787 3.9375 13.5C3.9375 14.1213 3.43382 14.625 2.8125 14.625C2.19118 14.625 1.6875 14.1213 1.6875 13.5Z" fill="#D7B58A" fill-opacity="0.5"/>
<path d="M11.25 13.5C11.25 12.8787 11.7537 12.375 12.375 12.375C12.9963 12.375 13.5 12.8787 13.5 13.5C13.5 14.1213 12.9963 14.625 12.375 14.625C11.7537 14.625 11.25 14.1213 11.25 13.5Z" fill="#D7B58A" fill-opacity="0.5"/>
</svg>
