<svg width="216" height="278" viewBox="0 0 216 278" fill="none" xmlns="http://www.w3.org/2000/svg">
<path fill-rule="evenodd" clip-rule="evenodd" d="M183.239 -64.9324H158.807V43.2447L118.283 -57.0554L95.63 -47.9031L137.204 54.9953L58.7293 -23.4791L41.4535 -6.20306L116.668 69.011L19.1957 26.4246L9.41409 48.8129L112.551 93.8742H0V118.306H112.551L9.41413 163.367L19.1957 185.756L116.667 143.17L41.4535 218.384L58.7293 235.659L137.204 157.185L95.63 260.084L118.283 269.235L158.807 168.936V277.113H183.239V168.936L223.762 269.235L246.414 260.084L204.842 157.185L283.316 235.659L300.591 218.384L225.377 143.17L322.85 185.756L332.63 163.367L229.495 118.306H342.045V93.8742H229.493L332.63 48.8129L322.85 26.4246L225.377 69.011L300.591 -6.20323L283.316 -23.4791L204.842 54.9951L246.414 -47.9031L223.762 -57.0554L183.239 43.2447V-64.9324Z" fill="#D2B589"/>
</svg>
